<?xml version="1.0" encoding="UTF-8" standalone="no"?>
<!-- Created with Notepad++ -->

<svg
   xmlns:dc="http://purl.org/dc/elements/1.1/"
   xmlns:cc="http://creativecommons.org/ns#"
   xmlns:rdf="http://www.w3.org/1999/02/22-rdf-syntax-ns#"
   xmlns:svg="http://www.w3.org/2000/svg"
   xmlns="http://www.w3.org/2000/svg"
   xmlns:sodipodi="http://sodipodi.sourceforge.net/DTD/sodipodi-0.dtd"
   xmlns:inkscape="http://www.inkscape.org/namespaces/inkscape"
   version="1.0"
   width="90"
   height="40"
   id="svg13757"
   sodipodi:docname="imply.svg"
   inkscape:version="0.92.2 2405546, 2018-03-11">
  <metadata
     id="metadata13763">
    <rdf:RDF>
      <cc:Work
         rdf:about="">
        <dc:format>image/svg+xml</dc:format>
        <dc:type
           rdf:resource="http://purl.org/dc/dcmitype/StillImage" />
        <dc:title></dc:title>
      </cc:Work>
    </rdf:RDF>
  </metadata>
  <defs
     id="defs13761" />
  <sodipodi:namedview
     pagecolor="#ffffff"
     bordercolor="#666666"
     borderopacity="1"
     objecttolerance="10"
     gridtolerance="10"
     guidetolerance="10"
     inkscape:pageopacity="0"
     inkscape:pageshadow="2"
     inkscape:window-width="2005"
     inkscape:window-height="1036"
     id="namedview13759"
     showgrid="true"
     inkscape:zoom="4.72"
     inkscape:cx="46.292373"
     inkscape:cy="25"
     inkscape:window-x="0"
     inkscape:window-y="0"
     inkscape:window-maximized="0"
     inkscape:current-layer="svg13757">
    <inkscape:grid
       type="xygrid"
       id="grid14308" />
  </sodipodi:namedview>
  <g
     id="g13745"
     transform="translate(-5,-5.0000096)">
    <g
       transform="translate(26.5,-39.5)"
       id="g13743">
      <path
         style="fill:#000000;fill-opacity:1;fill-rule:evenodd;stroke:none;stroke-width:3;stroke-linecap:butt;stroke-linejoin:miter;stroke-opacity:1"
         d="m -2.40625,44.5 2,2.4375 c 0,0 5.65625,7.000049 5.65625,17.5625 0,10.562451 -5.65625,17.5625 -5.65625,17.5625 l -2,2.4375 H 0.75 h 14 c 2.408076,10e-7 7.689699,0.02451 13.625,-2.40625 5.935301,-2.430764 12.536536,-7.343266 17.6875,-16.875 L 44.75,64.5 46.0625,63.78125 C 35.759387,44.71559 19.506574,44.5 14.75,44.5 h -14 z m 5.875,3 H 14.75 c 4.684173,0 18.28685,-0.130207 27.96875,17 C 37.951964,72.929075 32.197469,77.18391 27,79.3125 21.639339,81.507924 17.158075,81.500001 14.75,81.5 H 3.5 c 1.8735884,-3.108434 4.75,-9.04935 4.75,-17 0,-7.973354 -2.9085314,-13.900185 -4.78125,-17 z"
         id="path13741"
         inkscape:connector-curvature="0" />
    </g>
  </g>
  <g
     style="stroke:#000000;stroke-width:2"
     id="g13755"
     transform="translate(-5,-5.0000096)">
    <polyline
       points="23,15 5,15"
       id="polyline13747" />
    <polyline
       points="32,35 5,35"
       id="polyline13749" />
    <polyline
       points="70,25 95,25"
       id="polyline13751" />
    <circle
       cx="27"
       cy="15"
       r="3"
       style="fill-opacity:0"
       id="circle13753" />
  </g>
</svg>
