<?xml version="1.0" encoding="UTF-8" standalone="no"?>
<!-- Created with Inkscape (http://www.inkscape.org/) -->

<svg
   xmlns:dc="http://purl.org/dc/elements/1.1/"
   xmlns:cc="http://creativecommons.org/ns#"
   xmlns:rdf="http://www.w3.org/1999/02/22-rdf-syntax-ns#"
   xmlns:svg="http://www.w3.org/2000/svg"
   xmlns="http://www.w3.org/2000/svg"
   xmlns:sodipodi="http://sodipodi.sourceforge.net/DTD/sodipodi-0.dtd"
   xmlns:inkscape="http://www.inkscape.org/namespaces/inkscape"
   width="270"
   height="100"
   viewBox="0 0 270 100"
   version="1.1"
   id="svg8"
   inkscape:version="0.92.2 2405546, 2018-03-11"
   sodipodi:docname="mux.svg">
  <sodipodi:namedview
     id="base"
     pagecolor="#ffffff"
     bordercolor="#666666"
     borderopacity="1.0"
     inkscape:pageopacity="0.0"
     inkscape:pageshadow="2"
     inkscape:zoom="4.620152"
     inkscape:cx="136.8125"
     inkscape:cy="50"
     inkscape:document-units="px"
     inkscape:current-layer="layer1"
     showgrid="true">
    <inkscape:grid
       type="xygrid"
       id="grid581" />
  </sodipodi:namedview>
  <metadata
     id="metadata5">
    <rdf:RDF>
      <cc:Work
         rdf:about="">
        <dc:format>image/svg+xml</dc:format>
        <dc:type
           rdf:resource="http://purl.org/dc/dcmitype/StillImage" />
        <dc:title></dc:title>
      </cc:Work>
    </rdf:RDF>
  </metadata>
  <g
     inkscape:label="Layer 1"
     inkscape:groupmode="layer"
     id="layer1"
     transform="translate(0,-956)">
    <path
       sodipodi:nodetypes="cc"
       style="fill:none;stroke:#000000;stroke-width:2;stroke-linecap:butt;stroke-linejoin:miter;stroke-opacity:1"
       d="M 36,1026 H 20"
       id="path3061"
       inkscape:connector-curvature="0" />
    <path
       style="fill:none;stroke:#000000;stroke-width:1.99999988;stroke-linecap:butt;stroke-linejoin:miter;stroke-opacity:1"
       d="M 47,1046 H 20"
       id="path3944"
       inkscape:connector-curvature="0" />
    <path
       style="font-style:normal;font-variant:normal;font-weight:normal;font-stretch:normal;font-size:medium;line-height:normal;text-indent:0;text-align:start;text-decoration:none;text-decoration-line:none;letter-spacing:normal;word-spacing:normal;text-transform:none;writing-mode:lr-tb;direction:ltr;text-anchor:start;display:inline;overflow:visible;visibility:visible;fill:#000000;fill-opacity:1;stroke:none;stroke-width:3;marker:none;enable-background:accumulate"
       d="m 45,1016 v 1.4286 37.1428 1.4286 h 1.428571 19.047619 c 11.267908,0 20,-9 20,-20 0,-11 -8.732091,-20 -20,-20 0,0 0,0 -19.047619,0 z m 2.857143,2.8571 c 7.977121,0 13.061225,0 15.238095,0 1.190476,0 1.785714,0 2.083333,0 0.14881,0 0.230656,0 0.267858,0 0.0186,0 0.02511,0 0.02976,0 9.760664,0 16.666668,7.64 16.666668,17.1429 0,9.5029 -7.382195,17.1429 -17.142857,17.1429 H 47.857143 Z"
       id="path2884"
       sodipodi:nodetypes="ccccccsccccsssssccc"
       inkscape:connector-curvature="0" />
    <circle
       style="display:inline;overflow:visible;visibility:visible;fill:none;fill-opacity:1;stroke:#000000;stroke-width:2;stroke-linejoin:miter;stroke-opacity:1;marker:none;enable-background:accumulate"
       id="path4008"
       cx="41"
       cy="1026"
       r="4" />
    <path
       style="fill:none;stroke:#000000;stroke-width:2;stroke-linecap:butt;stroke-linejoin:miter;stroke-opacity:1"
       d="m 175,1006 c 20,0 25,0 25,0"
       id="path3059-2"
       sodipodi:nodetypes="cc"
       inkscape:connector-curvature="0" />
    <path
       id="path3061-7"
       style="fill:none;stroke:#000000;stroke-width:2;stroke-linecap:butt;stroke-linejoin:miter;stroke-opacity:1"
       d="M 136,995.99999 H 110 V 976 H 83.11111"
       inkscape:connector-curvature="0"
       sodipodi:nodetypes="cccc" />
    <g
       id="g2560"
       inkscape:label="Layer 1"
       transform="translate(121.46875,941.49999)">
      <path
         style="fill:#000000;fill-opacity:1;fill-rule:evenodd;stroke:none;stroke-width:3;stroke-linecap:butt;stroke-linejoin:miter;stroke-opacity:1"
         d="m 7.625,44.5 2,2.4375 c 0,0 5.65625,7.000049 5.65625,17.5625 0,10.562451 -5.65625,17.5625 -5.65625,17.5625 l -2,2.4375 h 3.15625 14 c 2.408076,10e-7 7.689699,0.02451 13.625,-2.40625 5.935301,-2.430764 12.536536,-7.343266 17.6875,-16.875 L 54.78125,64.5 56.09375,63.78125 C 45.790637,44.71559 29.537824,44.5 24.78125,44.5 h -14 z m 5.875,3 h 11.28125 c 4.684173,0 18.28685,-0.130207 27.96875,17 -4.766786,8.429075 -10.521281,12.68391 -15.71875,14.8125 -5.360661,2.195424 -9.841925,2.187501 -12.25,2.1875 h -11.25 c 1.873588,-3.108434 4.75,-9.04935 4.75,-17 0,-7.973354 -2.908531,-13.900185 -4.78125,-17 z"
         id="path4973"
         sodipodi:nodetypes="ccsccccscccccccccsccsc"
         inkscape:connector-curvature="0" />
    </g>
    <path
       id="path3059-3"
       style="fill:none;stroke:#000000;stroke-width:2;stroke-linecap:butt;stroke-linejoin:miter;stroke-opacity:1"
       d="M 83.11111,1036 H 110 v -20 h 27"
       inkscape:connector-curvature="0"
       sodipodi:nodetypes="cccc" />
    <path
       style="fill:none;stroke:#000000;stroke-width:2;stroke-linecap:butt;stroke-linejoin:miter;stroke-opacity:1"
       d="M 46,966 H 20"
       id="path3061-6"
       inkscape:connector-curvature="0" />
    <path
       style="fill:none;stroke:#000000;stroke-width:1.99999988;stroke-linecap:butt;stroke-linejoin:miter;stroke-opacity:1"
       d="M 47,986 H 20"
       id="path3944-06"
       inkscape:connector-curvature="0" />
    <path
       style="font-style:normal;font-variant:normal;font-weight:normal;font-stretch:normal;font-size:medium;line-height:normal;text-indent:0;text-align:start;text-decoration:none;text-decoration-line:none;letter-spacing:normal;word-spacing:normal;text-transform:none;writing-mode:lr-tb;direction:ltr;text-anchor:start;display:inline;overflow:visible;visibility:visible;fill:#000000;fill-opacity:1;stroke:none;stroke-width:3;marker:none;enable-background:accumulate"
       d="m 45,956 v 1.4286 37.1428 V 996 h 1.428571 19.047619 c 11.267908,0 20,-9 20,-20 0,-11 -8.732091,-20 -20,-20 0,0 0,0 -19.047619,0 z m 2.857143,2.8571 c 7.977121,0 13.061225,0 15.238095,0 1.190476,0 1.785714,0 2.083333,0 0.14881,0 0.230656,0 0.267858,0 0.0186,0 0.02511,0 0.02976,0 9.760664,0 16.666668,7.64 16.666668,17.1429 0,9.5029 -7.382195,17.1429 -17.142857,17.1429 H 47.857143 Z"
       id="path2884-2"
       sodipodi:nodetypes="ccccccsccccsssssccc"
       inkscape:connector-curvature="0" />
    <text
       xml:space="preserve"
       style="font-style:normal;font-variant:normal;font-weight:normal;font-stretch:normal;font-size:16px;line-height:1.20000005;font-family:sans-serif;-inkscape-font-specification:sans-serif;text-align:center;letter-spacing:0px;word-spacing:0px;text-anchor:middle;fill:#000000;fill-opacity:1;stroke:none"
       x="10"
       y="971"
       id="text631"><tspan
         sodipodi:role="line"
         id="tspan629"
         x="10"
         y="971">b</tspan></text>
    <text
       xml:space="preserve"
       style="font-style:normal;font-variant:normal;font-weight:normal;font-stretch:normal;font-size:16px;line-height:1.20000005;font-family:sans-serif;-inkscape-font-specification:sans-serif;text-align:center;letter-spacing:0px;word-spacing:0px;text-anchor:middle;fill:#000000;fill-opacity:1;stroke:none"
       x="10"
       y="1031"
       id="text635"><tspan
         sodipodi:role="line"
         id="tspan633"
         x="10"
         y="1031">b</tspan></text>
    <text
       xml:space="preserve"
       style="font-style:normal;font-variant:normal;font-weight:normal;font-stretch:normal;font-size:16px;line-height:1.20000005;font-family:sans-serif;-inkscape-font-specification:sans-serif;text-align:center;letter-spacing:0px;word-spacing:0px;text-anchor:middle;fill:#000000;fill-opacity:1;stroke:none"
       x="10"
       y="1051"
       id="text639"><tspan
         sodipodi:role="line"
         id="tspan637"
         x="10"
         y="1051">y</tspan></text>
    <text
       xml:space="preserve"
       style="font-style:normal;font-variant:normal;font-weight:normal;font-stretch:normal;font-size:16px;line-height:1.20000005;font-family:sans-serif;-inkscape-font-specification:sans-serif;text-align:center;letter-spacing:0px;word-spacing:0px;text-anchor:middle;fill:#000000;fill-opacity:1;stroke:none"
       x="10"
       y="991"
       id="text643"><tspan
         sodipodi:role="line"
         id="tspan641"
         x="10"
         y="991">x</tspan></text>
    <text
       xml:space="preserve"
       style="font-style:normal;font-variant:normal;font-weight:normal;font-stretch:normal;font-size:16px;line-height:1.20000005;font-family:sans-serif;-inkscape-font-specification:sans-serif;text-align:start;letter-spacing:0px;word-spacing:0px;text-anchor:start;fill:#000000;fill-opacity:1;stroke:none"
       x="205"
       y="1011"
       id="text647"><tspan
         sodipodi:role="line"
         id="tspan645"
         x="205"
         y="1011">b ? x : y</tspan></text>
  </g>
</svg>
