<?xml version="1.0" encoding="UTF-8" standalone="no"?>
<svg
   xmlns:dc="http://purl.org/dc/elements/1.1/"
   xmlns:cc="http://creativecommons.org/ns#"
   xmlns:rdf="http://www.w3.org/1999/02/22-rdf-syntax-ns#"
   xmlns:svg="http://www.w3.org/2000/svg"
   xmlns="http://www.w3.org/2000/svg"
   xmlns:sodipodi="http://sodipodi.sourceforge.net/DTD/sodipodi-0.dtd"
   xmlns:inkscape="http://www.inkscape.org/namespaces/inkscape"
   width="90"
   height="40"
   version="1.1"
   id="svg7527"
   sodipodi:docname="xor.svg"
   inkscape:version="0.92.2 2405546, 2018-03-11">
  <metadata
     id="metadata7533">
    <rdf:RDF>
      <cc:Work
         rdf:about="">
        <dc:format>image/svg+xml</dc:format>
        <dc:type
           rdf:resource="http://purl.org/dc/dcmitype/StillImage" />
        <dc:title></dc:title>
      </cc:Work>
    </rdf:RDF>
  </metadata>
  <defs
     id="defs7531" />
  <sodipodi:namedview
     pagecolor="#ffffff"
     bordercolor="#666666"
     borderopacity="1"
     objecttolerance="10"
     gridtolerance="10"
     guidetolerance="10"
     inkscape:pageopacity="0"
     inkscape:pageshadow="2"
     inkscape:window-width="1963"
     inkscape:window-height="1236"
     id="namedview7529"
     showgrid="true"
     inkscape:zoom="4.72"
     inkscape:cx="46.292373"
     inkscape:cy="25"
     inkscape:window-x="0"
     inkscape:window-y="0"
     inkscape:window-maximized="0"
     inkscape:current-layer="svg7527">
    <inkscape:grid
       type="xygrid"
       id="grid8078" />
  </sodipodi:namedview>
  <path
     d="m 65,19.99999 h 25 m -64.61428,-10 H 0 m 26.3621,20 H 0"
     id="path7519"
     inkscape:connector-curvature="0"
     style="fill:none;stroke:#000000;stroke-width:2" />
  <g
     id="g7525"
     transform="translate(-5,-5.0000096)"
     style="fill-rule:evenodd">
    <path
       d="M 24.25,42 C 22.65263,44.6444 22,45 22,45 h -3.65625 l 2,-2.4375 C 20.34375,42.5625 26,35.56245 26,25 26,14.43755 20.34375,7.4375 20.34375,7.4375 L 18.34375,5 H 22 c 0.78125,0.9375 1.42188,1.65625 2.21875,3 C 26.09147,11.09981 29,17.02665 29,25 c 0,7.95065 -2.8967,13.87942 -4.75,17 z"
       id="path7521"
       inkscape:connector-curvature="0" />
    <path
       d="m 24.09375,5 2,2.4375 c 0,0 5.65625,7.00005 5.65625,17.5625 0,10.56245 -5.65625,17.5625 -5.65625,17.5625 l -2,2.4375 H 41.25 c 2.40808,0 7.6897,0.02451 13.625,-2.40625 5.9353,-2.43076 12.53654,-7.34327 17.6875,-16.875 L 71.25,25 72.5625,24.28125 C 62.25939,5.21559 46.00657,5 41.25,5 Z m 5.875,3 H 41.25 C 45.93417,8 59.53685,7.8698 69.21875,25 64.45196,33.42907 58.69747,37.68391 53.5,39.8125 48.13934,42.00792 43.65808,42 41.25,42 H 30 c 1.87359,-3.10843 4.75,-9.04935 4.75,-17 0,-7.97335 -2.90853,-13.90019 -4.78125,-17 z"
       id="path7523"
       inkscape:connector-curvature="0" />
  </g>
</svg>
